<svg id="Layer_1" enable-background="new 0 0 512 512" height="512" viewBox="0 0 512 512" width="512" xmlns="http://www.w3.org/2000/svg"><g><path d="m447.733 304.2v-112.467c0-8.284-6.716-15-15-15h-128.533c-8.284 0-15 6.716-15 15v112.467c0 38.579 27.709 70.791 64.267 77.824v99.976h-33.2c-8.284 0-15 6.716-15 15s6.716 15 15 15h96.4c8.284 0 15-6.716 15-15s-6.716-15-15-15h-33.2v-99.975c36.557-7.033 64.266-39.246 64.266-77.825z"/><path d="m206.733 15c0-8.284-6.716-15-15-15h-64.267c-8.284 0-15 6.716-15 15v81.4h94.267z"/><path d="m206.733 178.531v-52.131h-94.267v52.128c-27.631 6.745-48.2 31.71-48.2 61.389v257.083c0 8.284 6.716 15 15 15h160.667c8.284 0 15-6.716 15-15v-49.267h-111.4c-8.284 0-15-6.716-15-15v-176.733c0-8.284 6.716-15 15-15h111.4v-1.083c0-29.674-20.565-54.637-48.2-61.386z"/><path d="m158.533 271h96.4v82.467h-96.4z"/><path d="m158.533 383.467h96.4v34.267h-96.4z"/></g></svg>